<svg xmlns="http://www.w3.org/2000/svg" width="89.895" height="90.684" viewBox="0 0 89.895 90.684">
  <path id="패스_824" data-name="패스 824" d="M25.992,59.547a.344.344,0,0,0,.389.447l6.19-1.166a.344.344,0,0,0,.262-.232l1.51-4.588L93.974,1.595,92.588,0,32.954,52.414,28.23,53.3a.336.336,0,0,0-.26.231Zm2.943-5.434,3.84-.723.581.669-1.226,3.73a.34.34,0,0,1-.262.231l-4.124.778a.346.346,0,0,1-.391-.448l1.317-4.005a.344.344,0,0,1,.265-.231" transform="translate(-17.041 70.923) rotate(-49)" fill="#eee"/>
</svg>
