<svg id="그룹_1918" data-name="그룹 1918" xmlns="http://www.w3.org/2000/svg" width="224" height="224" viewBox="0 0 224 224">
  <path id="패스_863" data-name="패스 863" d="M121.056,232.146h0a1.2,1.2,0,1,1,.057,0Zm9.594-1.136a1.175,1.175,0,0,1,1.11-1.236h0a1.175,1.175,0,0,1,.124,2.346l-.062,0a1.178,1.178,0,0,1-1.174-1.112m-20.368.058h0a1.179,1.179,0,1,1,.18.013,1.291,1.291,0,0,1-.177-.013m31.032-1.051a1.174,1.174,0,1,1,1.341.978,1.036,1.036,0,0,1-.181.015,1.174,1.174,0,0,1-1.159-.993m-41.642-1.135h0a1.174,1.174,0,1,1,.3.038,1.2,1.2,0,0,1-.3-.038m52.148-.946a1.174,1.174,0,1,1,1.435.835,1.118,1.118,0,0,1-.3.041,1.174,1.174,0,0,1-1.134-.875m-62.476-2.327v0a1.174,1.174,0,1,1,.414.075,1.174,1.174,0,0,1-.414-.075m72.711-.828a1.172,1.172,0,0,1,.681-1.514h0a1.173,1.173,0,0,1,.831,2.194,1.134,1.134,0,0,1-.414.077,1.175,1.175,0,0,1-1.1-.758m-82.644-3.495a1.174,1.174,0,1,1,.523.124,1.155,1.155,0,0,1-.523-.124m92.5-.7a1.173,1.173,0,1,1,1.051.647,1.173,1.173,0,0,1-1.051-.647M69.975,215.964h0a1.176,1.176,0,1,1,.628.182,1.176,1.176,0,0,1-.628-.182m111.3-.576a1.173,1.173,0,1,1,.991.542,1.172,1.172,0,0,1-.991-.542M61.138,209.7a1.172,1.172,0,1,1,.726.252,1.173,1.173,0,0,1-.726-.252m128.913-.442a1.175,1.175,0,0,1,.19-1.65h0a1.175,1.175,0,1,1-.188,1.65M52.988,202.566h0a1.176,1.176,0,1,1,.818.331,1.174,1.174,0,0,1-.818-.331m145.174-.305a1.174,1.174,0,1,1,1.659.019v0a1.173,1.173,0,0,1-1.659-.017m-152.55-7.623a1.175,1.175,0,1,1,.9.418,1.174,1.174,0,0,1-.9-.418m159.9-.167a1.173,1.173,0,1,1,.749.271,1.174,1.174,0,0,1-.749-.271M39.086,185.995a1.174,1.174,0,1,1,1.629.314,1.176,1.176,0,0,1-1.629-.314m172.943-.028a1.173,1.173,0,1,1,.656.2,1.172,1.172,0,0,1-.656-.2M33.479,176.728a1.177,1.177,0,1,1,1.037.619,1.173,1.173,0,0,1-1.037-.619m184.161.115a1.173,1.173,0,1,1,.549.137,1.173,1.173,0,0,1-.549-.137M28.86,166.931h0a1.173,1.173,0,0,1,2.171-.891h0a1.177,1.177,0,0,1-.643,1.533,1.165,1.165,0,0,1-.444.088,1.178,1.178,0,0,1-1.089-.73m193.423.256a1.168,1.168,0,1,1,.442.088,1.158,1.158,0,0,1-.442-.088m-197-10.478a1.174,1.174,0,1,1,1.458.8,1.2,1.2,0,0,1-.331.047,1.176,1.176,0,0,1-1.127-.843m200.623.4a1.173,1.173,0,1,1,1.454-.8v0a1.178,1.178,0,0,1-1.129.85,1.146,1.146,0,0,1-.324-.047M22.777,146.171a1.174,1.174,0,1,1,1.366.941,1.024,1.024,0,0,1-.214.019,1.173,1.173,0,0,1-1.152-.961m205.681.53a1.17,1.17,0,1,1,.207.019,1.158,1.158,0,0,1-.207-.019M21.373,135.433a1.175,1.175,0,1,1,1.264,1.078c-.032,0-.064,0-.094,0a1.176,1.176,0,0,1-1.17-1.082m208.55.66a1.177,1.177,0,0,1-1.084-1.26h0a1.174,1.174,0,1,1,1.172,1.262c-.03,0-.06,0-.09,0M22.216,125.807a1.188,1.188,0,1,1,.026,0Zm206.872-1.56h0c0-.032,0-.066,0-.1s-.006-.066-.009-.1a1.175,1.175,0,0,1,2.348-.071v0c0,.034,0,.068,0,.1s.006.068.008.1v0a1.175,1.175,0,0,1-1.142,1.2h-.032a1.174,1.174,0,0,1-1.174-1.142M22.882,115.117a1.162,1.162,0,1,1,.148.011,1.145,1.145,0,0,1-.148-.011m205.355-1.627a1.174,1.174,0,1,1,1.317,1.012,1.237,1.237,0,0,1-.154.011,1.176,1.176,0,0,1-1.163-1.023M24.645,104.554a1.166,1.166,0,1,1,.267.032,1.132,1.132,0,0,1-.267-.032m201.669-1.475h0a1.174,1.174,0,1,1,1.415.871,1.2,1.2,0,0,1-.274.032,1.175,1.175,0,0,1-1.142-.9M27.493,94.228a1.173,1.173,0,1,1,.382.064,1.189,1.189,0,0,1-.382-.064m195.835-1.306a1.173,1.173,0,1,1,1.108.786,1.174,1.174,0,0,1-1.108-.786M31.393,84.25a1.172,1.172,0,1,1,.5.111,1.175,1.175,0,0,1-.5-.111m187.913-1.121a1.172,1.172,0,1,1,1.061.672,1.175,1.175,0,0,1-1.061-.672m-183-8.4a1.173,1.173,0,1,1,.6.166,1.189,1.189,0,0,1-.6-.166M214.293,73.8h0a1.178,1.178,0,1,1,1.006.566,1.174,1.174,0,0,1-1.006-.566M42.17,65.764a1.17,1.17,0,1,1,.7.235,1.16,1.16,0,0,1-.7-.235m166.175-.72a1.175,1.175,0,1,1,.937.466,1.173,1.173,0,0,1-.937-.466m-159.427-7.6a1.174,1.174,0,1,1,.8.312,1.176,1.176,0,0,1-.8-.312m152.613-.508a1.175,1.175,0,1,1,.858.374,1.174,1.174,0,0,1-.858-.374M56.485,49.863a1.172,1.172,0,1,1,.88.4,1.173,1.173,0,0,1-.88-.4m137.438-.292a1.173,1.173,0,1,1,.772.291,1.158,1.158,0,0,1-.772-.291M64.783,43.094a1.175,1.175,0,1,1,.956.491,1.173,1.173,0,0,1-.956-.491M185.6,43.021h0a1.174,1.174,0,1,1,.677.215,1.174,1.174,0,0,1-.677-.215M73.732,37.212a1.173,1.173,0,1,1,1.021.593,1.172,1.172,0,0,1-1.021-.593m102.92.145a1.178,1.178,0,1,1,.574.149,1.163,1.163,0,0,1-.574-.149M83.239,32.285a1.175,1.175,0,1,1,1.548.6,1.161,1.161,0,0,1-.474.1,1.176,1.176,0,0,1-1.074-.7m83.927.359h0a1.178,1.178,0,1,1,.468.1,1.175,1.175,0,0,1-.468-.1m-73.96-4.28a1.174,1.174,0,1,1,1.477.758,1.112,1.112,0,0,1-.36.058,1.173,1.173,0,0,1-1.117-.815m64.042.572a1.178,1.178,0,1,1,.354.054,1.191,1.191,0,0,1-.354-.054M103.526,25.5a1.174,1.174,0,1,1,1.39.907,1.19,1.19,0,0,1-.244.026,1.174,1.174,0,0,1-1.146-.933m43.47.775h0a1.167,1.167,0,1,1,.237.026,1.136,1.136,0,0,1-.237-.026m-32.911-2.562a1.174,1.174,0,1,1,1.29,1.046,1.149,1.149,0,0,1-.124.007,1.173,1.173,0,0,1-1.166-1.053m22.444.976h0a1.166,1.166,0,1,1,.115.006,1.075,1.075,0,0,1-.115-.006m-11.754-1.672a1.173,1.173,0,1,1,1.176,1.17h0a1.173,1.173,0,0,1-1.172-1.17" transform="translate(-14.312 -14.835)" fill="#fff"/>
  <path id="패스_864" data-name="패스 864" d="M339.922,15.627h0a3.843,3.843,0,0,1-3.843-3.843V3.843a3.843,3.843,0,0,1,7.686,0v7.942a3.843,3.843,0,0,1-3.843,3.843" transform="translate(-228.31)" fill="#fff"/>
  <path id="패스_865" data-name="패스 865" d="M355.222,665.439h0a3.843,3.843,0,0,1-3.843-3.843v-7.942a3.843,3.843,0,0,1,7.686,0V661.6a3.843,3.843,0,0,1-3.843,3.843" transform="translate(-238.704 -441.439)" fill="#fff"/>
  <path id="패스_866" data-name="패스 866" d="M649.812,335.439h0a3.843,3.843,0,0,1,3.843-3.843H661.6a3.843,3.843,0,0,1,0,7.686h-7.942a3.843,3.843,0,0,1-3.843-3.843" transform="translate(-441.439 -225.264)" fill="#fff"/>
  <path id="패스_867" data-name="패스 867" d="M0,335.439H0A3.843,3.843,0,0,1,3.843,331.6h7.942a3.843,3.843,0,0,1,0,7.686H3.843A3.843,3.843,0,0,1,0,335.439" transform="translate(0 -225.264)" fill="#fff"/>
</svg>
